<?xml version="1.0" standalone="no"?><svg xmlns="http://www.w3.org/2000/svg" viewBox="0 0 1440 320"><path fill="#0099ff" fill-opacity="1" d="M0,128L21.8,117.3C43.6,107,87,85,131,74.7C174.5,64,218,64,262,101.3C305.5,139,349,213,393,234.7C436.4,256,480,224,524,192C567.3,160,611,128,655,112C698.2,96,742,96,785,117.3C829.1,139,873,181,916,202.7C960,224,1004,224,1047,229.3C1090.9,235,1135,245,1178,240C1221.8,235,1265,213,1309,192C1352.7,171,1396,149,1418,138.7L1440,128L1440,320L1418.2,320C1396.4,320,1353,320,1309,320C1265.5,320,1222,320,1178,320C1134.5,320,1091,320,1047,320C1003.6,320,960,320,916,320C872.7,320,829,320,785,320C741.8,320,698,320,655,320C610.9,320,567,320,524,320C480,320,436,320,393,320C349.1,320,305,320,262,320C218.2,320,175,320,131,320C87.3,320,44,320,22,320L0,320Z"></path></svg>